<mxfile host="app.diagrams.net" agent="Mozilla/5.0 (Macintosh; Intel Mac OS X 10_15_7) AppleWebKit/537.36 (KHTML, like Gecko) Chrome/129.0.0.0 Safari/537.36" version="24.7.17">
  <diagram name="Page-1" id="ebbGdEg_QRib25QtzmIK">
    <mxGraphModel dx="2894" dy="1571" grid="1" gridSize="10" guides="1" tooltips="1" connect="1" arrows="1" fold="1" page="1" pageScale="1" pageWidth="827" pageHeight="1169" math="0" shadow="0">
      <root>
        <mxCell id="0" />
        <mxCell id="1" parent="0" />
        <mxCell id="SMIGvvfhW7aylibI2W_S-4" value="" style="edgeStyle=orthogonalEdgeStyle;rounded=0;orthogonalLoop=1;jettySize=auto;html=1;fillOpacity=100;fontSize=24;" edge="1" parent="1" source="SMIGvvfhW7aylibI2W_S-1" target="SMIGvvfhW7aylibI2W_S-3">
          <mxGeometry relative="1" as="geometry">
            <Array as="points">
              <mxPoint y="90" />
            </Array>
          </mxGeometry>
        </mxCell>
        <mxCell id="SMIGvvfhW7aylibI2W_S-6" value="" style="edgeStyle=orthogonalEdgeStyle;rounded=0;orthogonalLoop=1;jettySize=auto;html=1;fillOpacity=100;fontSize=24;" edge="1" parent="1" source="SMIGvvfhW7aylibI2W_S-1" target="SMIGvvfhW7aylibI2W_S-5">
          <mxGeometry relative="1" as="geometry" />
        </mxCell>
        <mxCell id="SMIGvvfhW7aylibI2W_S-17" value="" style="edgeStyle=orthogonalEdgeStyle;rounded=0;orthogonalLoop=1;jettySize=auto;html=1;fillOpacity=100;fontSize=24;" edge="1" parent="1" source="SMIGvvfhW7aylibI2W_S-1" target="SMIGvvfhW7aylibI2W_S-16">
          <mxGeometry relative="1" as="geometry" />
        </mxCell>
        <mxCell id="SMIGvvfhW7aylibI2W_S-1" value="&lt;font style=&quot;font-size: 24px;&quot;&gt;Home Page&lt;/font&gt;" style="rounded=0;whiteSpace=wrap;html=1;fillOpacity=100;fontSize=24;container=0;" vertex="1" parent="1">
          <mxGeometry x="-110" y="136" width="220" height="120" as="geometry" />
        </mxCell>
        <mxCell id="SMIGvvfhW7aylibI2W_S-7" style="edgeStyle=orthogonalEdgeStyle;rounded=0;orthogonalLoop=1;jettySize=auto;html=1;exitX=0.5;exitY=1;exitDx=0;exitDy=0;entryX=0.5;entryY=0;entryDx=0;entryDy=0;fillOpacity=100;fontSize=24;" edge="1" parent="1" source="SMIGvvfhW7aylibI2W_S-3" target="SMIGvvfhW7aylibI2W_S-5">
          <mxGeometry relative="1" as="geometry" />
        </mxCell>
        <mxCell id="SMIGvvfhW7aylibI2W_S-3" value="&lt;span style=&quot;font-size: 24px;&quot;&gt;Search&lt;/span&gt;" style="rounded=0;whiteSpace=wrap;html=1;fillOpacity=100;fontSize=24;container=0;" vertex="1" parent="1">
          <mxGeometry x="331" y="30" width="220" height="120" as="geometry" />
        </mxCell>
        <mxCell id="SMIGvvfhW7aylibI2W_S-9" value="" style="edgeStyle=orthogonalEdgeStyle;rounded=0;orthogonalLoop=1;jettySize=auto;html=1;fillOpacity=100;fontSize=24;" edge="1" parent="1" source="SMIGvvfhW7aylibI2W_S-5" target="SMIGvvfhW7aylibI2W_S-8">
          <mxGeometry relative="1" as="geometry" />
        </mxCell>
        <mxCell id="SMIGvvfhW7aylibI2W_S-5" value="&lt;span style=&quot;font-size: 24px;&quot;&gt;Restaurant Page&lt;/span&gt;" style="rounded=0;whiteSpace=wrap;html=1;fillOpacity=100;fontSize=24;container=0;" vertex="1" parent="1">
          <mxGeometry x="330" y="243" width="220" height="120" as="geometry" />
        </mxCell>
        <mxCell id="SMIGvvfhW7aylibI2W_S-11" value="" style="edgeStyle=orthogonalEdgeStyle;rounded=0;orthogonalLoop=1;jettySize=auto;html=1;fillOpacity=100;fontSize=24;" edge="1" parent="1" source="SMIGvvfhW7aylibI2W_S-8" target="SMIGvvfhW7aylibI2W_S-10">
          <mxGeometry relative="1" as="geometry" />
        </mxCell>
        <mxCell id="SMIGvvfhW7aylibI2W_S-8" value="&lt;span style=&quot;font-size: 24px;&quot;&gt;Checkout Page&lt;/span&gt;" style="rounded=0;whiteSpace=wrap;html=1;fillOpacity=100;fontSize=24;container=0;" vertex="1" parent="1">
          <mxGeometry x="330" y="455" width="220" height="120" as="geometry" />
        </mxCell>
        <mxCell id="SMIGvvfhW7aylibI2W_S-13" value="" style="edgeStyle=orthogonalEdgeStyle;rounded=0;orthogonalLoop=1;jettySize=auto;html=1;fillOpacity=100;fontSize=24;" edge="1" parent="1" source="SMIGvvfhW7aylibI2W_S-10" target="SMIGvvfhW7aylibI2W_S-12">
          <mxGeometry relative="1" as="geometry" />
        </mxCell>
        <mxCell id="SMIGvvfhW7aylibI2W_S-10" value="&lt;span style=&quot;font-size: 24px;&quot;&gt;Order Success Page&lt;/span&gt;" style="rounded=0;whiteSpace=wrap;html=1;fillOpacity=100;fontSize=24;container=0;" vertex="1" parent="1">
          <mxGeometry x="330" y="668" width="220" height="120" as="geometry" />
        </mxCell>
        <mxCell id="SMIGvvfhW7aylibI2W_S-15" value="" style="edgeStyle=orthogonalEdgeStyle;rounded=0;orthogonalLoop=1;jettySize=auto;html=1;fillOpacity=100;fontSize=24;" edge="1" parent="1" source="SMIGvvfhW7aylibI2W_S-12" target="SMIGvvfhW7aylibI2W_S-14">
          <mxGeometry relative="1" as="geometry" />
        </mxCell>
        <mxCell id="SMIGvvfhW7aylibI2W_S-12" value="&lt;span style=&quot;font-size: 24px;&quot;&gt;Track Order Page&lt;/span&gt;" style="rounded=0;whiteSpace=wrap;html=1;fillOpacity=100;fontSize=24;container=0;" vertex="1" parent="1">
          <mxGeometry x="330" y="880" width="220" height="120" as="geometry" />
        </mxCell>
        <mxCell id="SMIGvvfhW7aylibI2W_S-14" value="&lt;span style=&quot;font-size: 24px;&quot;&gt;Support (Sales IQ)&lt;/span&gt;" style="rounded=0;whiteSpace=wrap;html=1;fillOpacity=100;fontSize=24;container=0;" vertex="1" parent="1">
          <mxGeometry x="630" y="880" width="220" height="120" as="geometry" />
        </mxCell>
        <mxCell id="SMIGvvfhW7aylibI2W_S-19" value="" style="edgeStyle=orthogonalEdgeStyle;rounded=0;orthogonalLoop=1;jettySize=auto;html=1;fillOpacity=100;fontSize=24;" edge="1" parent="1" source="SMIGvvfhW7aylibI2W_S-16" target="SMIGvvfhW7aylibI2W_S-18">
          <mxGeometry relative="1" as="geometry" />
        </mxCell>
        <mxCell id="SMIGvvfhW7aylibI2W_S-16" value="&lt;font style=&quot;font-size: 24px;&quot;&gt;User Profile&lt;/font&gt;" style="rounded=0;whiteSpace=wrap;html=1;fontSize=24;container=0;" vertex="1" parent="1">
          <mxGeometry x="-430" y="349" width="220" height="120" as="geometry" />
        </mxCell>
        <mxCell id="SMIGvvfhW7aylibI2W_S-21" style="edgeStyle=orthogonalEdgeStyle;rounded=0;orthogonalLoop=1;jettySize=auto;html=1;exitX=0.5;exitY=1;exitDx=0;exitDy=0;entryX=0;entryY=0.5;entryDx=0;entryDy=0;fillOpacity=100;fontSize=24;" edge="1" parent="1" source="SMIGvvfhW7aylibI2W_S-18" target="SMIGvvfhW7aylibI2W_S-12">
          <mxGeometry relative="1" as="geometry" />
        </mxCell>
        <mxCell id="SMIGvvfhW7aylibI2W_S-18" value="&lt;font style=&quot;font-size: 24px;&quot;&gt;Order History&lt;/font&gt;" style="rounded=0;whiteSpace=wrap;html=1;container=0;" vertex="1" parent="1">
          <mxGeometry x="-430" y="561" width="220" height="120" as="geometry" />
        </mxCell>
      </root>
    </mxGraphModel>
  </diagram>
</mxfile>
